<svg width="71" height="71" viewBox="0 0 71 71" fill="none" xmlns="http://www.w3.org/2000/svg">
<circle cx="35.5" cy="35.5" r="22.5" fill="black" fill-opacity="0.9"/>
<path fill-rule="evenodd" clip-rule="evenodd" d="M0 35.5C0 15.8939 15.8939 0 35.5 0C55.1061 0 71 15.8939 71 35.5C71 55.1061 55.1061 71 35.5 71C15.8939 71 0 55.1061 0 35.5ZM35.5 17.75C45.2625 17.75 53.25 25.7375 53.25 35.5C53.25 44.375 46.8156 51.9188 37.9406 53.25V40.6031H42.1562L43.0438 35.5H38.1625V32.1719C38.1625 30.8406 38.8281 29.5094 41.0469 29.5094H43.2656V25.0719C43.2656 25.0719 41.2687 24.6281 39.2719 24.6281C35.2781 24.6281 32.6156 27.0688 32.6156 31.5063V35.5H28.1781V40.6031H32.6156V53.0281C24.1844 51.6969 17.75 44.375 17.75 35.5C17.75 25.7375 25.7375 17.75 35.5 17.75Z" fill="#F7F7F7"/>
</svg>
