<svg width="71" height="71" viewBox="0 0 71 71" fill="none" xmlns="http://www.w3.org/2000/svg">
<circle cx="35.5" cy="35.5" r="25.5" fill="black" fill-opacity="0.9"/>
<path d="M35.5 41.7125C32.1719 41.7125 29.2875 39.05 29.2875 35.5C29.2875 32.1719 31.95 29.2875 35.5 29.2875C38.8281 29.2875 41.7125 31.95 41.7125 35.5C41.7125 38.8281 38.8281 41.7125 35.5 41.7125Z" fill="#F7F7F7"/>
<path fill-rule="evenodd" clip-rule="evenodd" d="M43.0438 20.4125H27.9563C26.1812 20.6344 25.2938 20.8562 24.6281 21.0781C23.7406 21.3 23.075 21.7437 22.4094 22.4094C21.8827 22.9361 21.6338 23.4628 21.333 24.0994C21.2538 24.2672 21.1707 24.4431 21.0781 24.6281C21.0438 24.7311 21.0042 24.8394 20.9617 24.9554C20.7296 25.5896 20.4125 26.4558 20.4125 27.9562V43.0437C20.6344 44.8187 20.8562 45.7062 21.0781 46.3719C21.3 47.2594 21.7437 47.925 22.4094 48.5906C22.9361 49.1173 23.4628 49.3662 24.0994 49.667C24.2673 49.7463 24.4429 49.8293 24.6281 49.9219C24.7311 49.9562 24.8394 49.9958 24.9554 50.0383C25.5896 50.2704 26.4558 50.5875 27.9563 50.5875H43.0438C44.8187 50.3656 45.7062 50.1437 46.3719 49.9219C47.2594 49.7 47.925 49.2562 48.5906 48.5906C49.1173 48.0639 49.3662 47.5372 49.667 46.9006C49.7463 46.7327 49.8293 46.5571 49.9219 46.3719C49.9562 46.2689 49.9958 46.1606 50.0383 46.0446C50.2704 45.4104 50.5875 44.5442 50.5875 43.0437V27.9562C50.3656 26.1812 50.1437 25.2937 49.9219 24.6281C49.7 23.7406 49.2562 23.075 48.5906 22.4094C48.0639 21.8827 47.5372 21.6338 46.9006 21.333C46.7329 21.2538 46.5568 21.1706 46.3719 21.0781C46.2689 21.0438 46.1606 21.0042 46.0446 20.9617C45.4104 20.7296 44.5442 20.4125 43.0438 20.4125ZM35.5 25.9594C30.175 25.9594 25.9594 30.175 25.9594 35.5C25.9594 40.825 30.175 45.0406 35.5 45.0406C40.825 45.0406 45.0406 40.825 45.0406 35.5C45.0406 30.175 40.825 25.9594 35.5 25.9594ZM47.4813 25.7375C47.4813 26.9629 46.4879 27.9562 45.2625 27.9562C44.0371 27.9562 43.0438 26.9629 43.0438 25.7375C43.0438 24.5121 44.0371 23.5187 45.2625 23.5187C46.4879 23.5187 47.4813 24.5121 47.4813 25.7375Z" fill="#F7F7F7"/>
<path fill-rule="evenodd" clip-rule="evenodd" d="M0 35.5C0 15.8939 15.8939 0 35.5 0C55.1061 0 71 15.8939 71 35.5C71 55.1061 55.1061 71 35.5 71C15.8939 71 0 55.1061 0 35.5ZM27.9563 17.0844H43.0438C45.0406 17.3062 46.3719 17.5281 47.4813 17.9719C48.8125 18.6375 49.7 19.0812 50.8094 20.1906C51.9188 21.3 52.5844 22.4094 53.0281 23.5187C53.4719 24.6281 53.9156 25.9594 53.9156 27.9562V43.0437C53.6937 45.0406 53.4719 46.3719 53.0281 47.4812C52.3625 48.8125 51.9188 49.7 50.8094 50.8094C49.7 51.9187 48.5906 52.5844 47.4813 53.0281C46.3719 53.4719 45.0406 53.9156 43.0438 53.9156H27.9563C25.9594 53.6937 24.6281 53.4719 23.5188 53.0281C22.1875 52.3625 21.3 51.9187 20.1906 50.8094C19.0813 49.7 18.4156 48.5906 17.9719 47.4812C17.5281 46.3719 17.0844 45.0406 17.0844 43.0437V27.9562C17.3062 25.9594 17.5281 24.6281 17.9719 23.5187C18.6375 22.1875 19.0813 21.3 20.1906 20.1906C21.3 19.0812 22.4094 18.4156 23.5188 17.9719C24.6281 17.5281 25.9594 17.0844 27.9563 17.0844Z" fill="#F7F7F7"/>
</svg>
