<svg width="71" height="71" viewBox="0 0 71 71" fill="none" xmlns="http://www.w3.org/2000/svg">
<circle cx="34.9083" cy="36.0917" r="30.175" fill="black" fill-opacity="0.9"/>
<path fill-rule="evenodd" clip-rule="evenodd" d="M35.5 0C15.8939 0 0 15.8939 0 35.5C0 55.1061 15.8939 71 35.5 71C55.1061 71 71 55.1061 71 35.5C71 15.8939 55.1061 0 35.5 0ZM42.4186 17.75C42.4186 18.2775 42.4679 18.797 42.5586 19.2998C42.9952 21.6241 44.3707 23.6187 46.2813 24.8631C47.6155 25.7369 49.1967 26.2397 50.9014 26.2397L50.9011 27.5996V32.339C47.7386 32.339 44.8069 31.3252 42.4184 29.6107V42.0156C42.4184 48.2056 37.3784 53.25 31.1937 53.25C28.8054 53.25 26.5817 52.4915 24.7616 51.214C21.8628 49.1781 19.9688 45.8152 19.9688 42.0156C19.9688 35.8173 25.0006 30.7813 31.1854 30.7894C31.7043 30.7894 32.2066 30.8306 32.7008 30.8966V32.339L32.6827 32.3476L32.7007 32.3472V37.1278C32.2231 36.9794 31.7125 36.8888 31.1854 36.8888C28.3606 36.8888 26.0629 39.1885 26.0629 42.0156C26.0629 43.9856 27.1829 45.6917 28.8136 46.5572C28.8288 46.578 28.8442 46.5988 28.8597 46.6194L28.8871 46.6554C28.8683 46.6192 28.8467 46.5837 28.8219 46.5489C29.5383 46.9281 30.3454 47.1423 31.2019 47.1423C33.9607 47.1423 36.2173 44.9417 36.3161 42.2052L36.3243 17.75H42.4186Z" fill="#F7F7F7"/>
</svg>
