<svg width="71" height="71" viewBox="0 0 71 71" fill="none" xmlns="http://www.w3.org/2000/svg">
<circle cx="36" cy="35" r="24" fill="black" fill-opacity="0.9"/>
<path fill-rule="evenodd" clip-rule="evenodd" d="M0 35.5C0 15.8939 15.8939 0 35.5 0C55.1061 0 71 15.8939 71 35.5C71 55.1061 55.1061 71 35.5 71C15.8939 71 0 55.1061 0 35.5ZM49.0344 25.5156C50.5875 25.2937 51.9188 25.0719 53.25 24.4062C52.3625 25.9594 51.0312 27.2906 49.4781 28.1781C49.9219 38.6063 42.3781 49.9219 28.8438 49.9219C24.85 49.9219 21.0781 48.5906 17.75 46.5938C21.5219 47.0375 25.5156 45.9281 28.1781 43.9312C24.85 43.9312 22.1875 41.7125 21.3 38.8281C22.4094 39.05 23.5188 38.8281 24.6281 38.6063C21.3 37.7188 18.8594 34.6125 18.8594 31.2844C19.9688 31.7281 21.0781 32.1719 22.1875 32.1719C19.0813 29.9531 17.9719 25.7375 19.9688 22.4094C23.7406 26.8469 29.0656 29.7312 35.0563 29.9531C33.9469 25.5156 37.4969 21.0781 42.1562 21.0781C44.1531 21.0781 46.15 21.9656 47.4813 23.2969C49.2562 22.8531 50.8094 22.4094 52.1406 21.5219C51.6969 23.2969 50.5875 24.6281 49.0344 25.5156Z" fill="#F7F7F7"/>
</svg>
