<svg width="88" height="88" viewBox="0 0 88 88" fill="none" xmlns="http://www.w3.org/2000/svg">
<circle cx="44" cy="44" r="44" fill="white"/>
<path d="M49.1685 24.177C46.3341 21.2743 41.6659 21.2743 38.8315 24.177L37.2769 25.7691L35.0519 25.7426C30.9952 25.6943 27.6943 28.9952 27.7426 33.0519L27.7691 35.2769L26.177 36.8315C23.2743 39.6659 23.2743 44.3341 26.177 47.1685L27.7691 48.7231L27.7426 50.9481C27.6943 55.0048 30.9952 58.3057 35.0519 58.2574L37.2769 58.2309L38.8315 59.823C41.6659 62.7257 46.3341 62.7257 49.1685 59.823L50.7231 58.2309L52.9481 58.2574C57.0048 58.3057 60.3057 55.0048 60.2574 50.9481L60.2309 48.7231L61.823 47.1685C64.7257 44.3341 64.7257 39.6659 61.823 36.8315L60.2309 35.2769L60.2574 33.0519C60.3057 28.9952 57.0048 25.6943 52.9481 25.7426L50.7231 25.7691L49.1685 24.177ZM49.8839 39.1339L42.3839 46.6339C42.1495 46.8683 41.8315 47 41.5 47C41.1685 47 40.8505 46.8683 40.6161 46.6339L36.8661 42.8839C36.378 42.3957 36.378 41.6043 36.8661 41.1161C37.3543 40.628 38.1457 40.628 38.6339 41.1161L41.5 43.9822L48.1161 37.3661C48.6043 36.878 49.3957 36.878 49.8839 37.3661C50.372 37.8543 50.372 38.6457 49.8839 39.1339Z" fill="black"/>
</svg>
