<svg id="Layer_1" data-name="Layer 1" xmlns="http://www.w3.org/2000/svg" xmlns:xlink="http://www.w3.org/1999/xlink" viewBox="0 0 1041 173.7"><defs><style>.cls-1,.cls-3{fill:none;}.cls-2{clip-path:url(#clip-path);}.cls-3{stroke:#000;stroke-miterlimit:10;}.cls-4{fill:#fff;}</style><clipPath id="clip-path"><rect class="cls-1" x="-1126.61" y="-1642.83" width="1700" height="1500"/></clipPath></defs><g class="cls-2"><polygon class="cls-3" points="-1177.33 -26.67 -562.31 326.63 624.1 -366.89 624.1 -1055.94 17.81 -1409.37 17.81 -715.84 -1177.33 -26.67"/></g><path class="cls-4" d="M161.45,127.26l21.08-14.81C188.31,121.73,196.7,126,208,126c12.38,0,20.68-5,20.68-12,0-9.6-15.71-17.17-29.47-24-14.74-7.33-30.94-15.39-30.94-36.31,0-22.72,19.22-37.7,43.31-37.7,17.91,0,32.73,7.41,38.67,23.29L230.81,52.77c-3.91-7.81-11.48-11-18.81-11-9.85,0-17.18,5.7-17.18,12.46,0,7.81,9.94,10.5,25,17.58,21.73,10.26,35.41,21.33,35.41,41.52,0,23.94-19.54,39.16-47.62,39.16C186.11,152.5,170.24,143.55,161.45,127.26Z"/><path class="cls-4" d="M417.89,97.06V149.9H392.81V97.06c0-16.69-4.72-23-16.44-23-13.52,0-19.7,8.39-19.7,23V149.9H331.59V97.06c0-16.69-4.72-23-16.44-23-13.52,0-19.7,8.39-19.7,23V149.9H270.37V52.2h23.45l.89,9C301.63,53.51,311.4,49,323.53,49c11.73,0,22.23,4.23,28.17,17.83,6.92-11,18.24-17.83,33.05-17.83C402.66,49,417.89,59,417.89,97.06Z"/><path class="cls-4" d="M537,52.2v97.7H513.54l-1-10.75c-7.49,9-18.24,14-31.18,14-30.13,0-47.55-26.46-47.55-52C433.76,72.47,454,49,481.55,49c12.54,0,23.36,4.72,30.94,13.84l1-10.59Zm-25.07,48.69c0-16.69-12.54-26.87-26.3-26.87a26.81,26.81,0,0,0-26.78,26.79c0,13.67,10.42,27.27,26.78,27.27C500.52,128.08,511.92,116.84,511.92,100.89Z"/><path class="cls-4" d="M617.67,48.13,613.6,75.65c-1-.08-2.12-.08-3.26-.08-11,0-27.11,4.23-27.11,33.7V149.9H558.16V52.2H581.6l1.31,13.11A44,44,0,0,1,617.67,48.13Z"/><path class="cls-4" d="M637.12,117.17V76.63h-13V53.83h3.09c7.17,0,11.56-4.72,11.56-12.37V32.67H662.2V52.2h19.54V76.63H662.2v40.54c0,6.51,2,10.34,8.3,10.34a45.37,45.37,0,0,0,11.24-2v23.12a78.88,78.88,0,0,1-19.7,2.93C645.67,151.52,637.12,139.72,637.12,117.17Z"/><path class="cls-4" d="M756.07,149.9l-35.5-43.15V149.9H695.5V15.57h25.07V95.35L753.05,52.2h28.82L745.4,100l41.11,49.91Z"/><path class="cls-4" d="M800.27,15.57h25.08V149.9H800.27Z"/><path class="cls-4" d="M944.45,52.2v97.7H921l-1.06-10.75c-7.49,9-18.23,14-31.18,14-30.12,0-47.54-26.46-47.54-52C841.22,72.47,861.41,49,889,49c12.54,0,23.36,4.72,30.93,13.84L921,52.2Zm-25.08,48.69C919.37,84.2,906.84,74,893.08,74a26.81,26.81,0,0,0-26.78,26.79c0,13.67,10.42,27.27,26.78,27.27C908,128.08,919.37,116.84,919.37,100.89Z"/><path class="cls-4" d="M960.32,133.53l14.09-16.36c4.39,6.35,13,11.72,24.18,11.72,5.86,0,13.43-1.46,13.43-7,0-5.78-8.3-7.9-20.11-13C980.68,104,965,96.08,965,78.66c0-18.4,17.59-29.79,35.74-29.79,15.15,0,28.9,7.89,33.38,17.91l-17.26,14.49a20.69,20.69,0,0,0-16.93-8c-5,0-9.85,1.38-9.85,5.37,0,4.81,6.84,6.84,18.23,11.89,19.71,8.79,28.82,15.87,28.82,30.28,0,19.7-18.64,32.49-39.48,32.49C979.7,153.32,965.45,143.87,960.32,133.53Z"/><polygon points="127.06 27.64 85.01 3.48 3.91 50.89 3.91 98 45.35 122.16 45.35 74.75 127.06 27.64"/><polygon points="3.91 146.06 45.95 170.22 127.06 122.8 127.06 75.7 85.61 51.54 85.61 98.95 3.91 146.06"/><path class="cls-4" d="M1012.56,20.83h-5.77V39.65h-4.74V20.83h-5.79V16.15h16.3Z"/><path class="cls-4" d="M1038.23,15.57V39.65h-4.72V29.42l-6.76,9.84h0l-6.77-9.84V39.65h-4.73V15.57h.26l11.26,15.53L1038,15.57Z"/></svg>